<svg xmlns="http://www.w3.org/2000/svg" xmlns:xlink="http://www.w3.org/1999/xlink" aria-hidden="true" role="img" class="iconify iconify--logos" width="37.07" height="36" preserveAspectRatio="xMidYMid meet" viewBox="0 0 256 198"><path fill="#41B883" d="M204.8 0H256L128 220.8L0 0h97.92L128 51.2L157.44 0h47.36Z"></path><path fill="#41B883" d="m0 0l128 220.8L256 0h-51.2L128 132.48L50.56 0H0Z"></path><path fill="#35495E" d="M50.56 0L128 133.12L204.8 0h-47.36L128 51.2L97.92 0H50.56Z"></path></svg><svg width="40" height="40" viewBox="0 0 40 40" fill="none" xmlns="http://www.w3.org/2000/svg">
<circle cx="20" cy="20" r="20" fill="#BAB3FF"/>
<path d="M12 17.9665C12 16.7591 12.2131 15.5932 12.6392 14.4687C13.0653 13.3442 13.6572 12.3854 14.4147 11.5923C15.1723 10.7874 16.066 10.1541 17.0958 9.69246C18.1375 9.23082 19.262 9 20.4693 9C21.6767 9 22.8131 9.23082 23.8784 9.69246C24.9437 10.1541 25.8729 10.7874 26.666 11.5923C27.4591 12.3854 28.0864 13.3442 28.5481 14.4687C29.0097 15.5932 29.2405 16.7591 29.2405 17.9665C29.2405 19.1739 29.0097 20.3161 28.5481 21.3933C28.0864 22.4586 27.4591 23.3878 26.666 24.1809C25.8729 24.974 24.9437 25.6013 23.8784 26.063C22.8131 26.5246 21.6767 26.7554 20.4693 26.7554C19.5816 26.7554 18.7707 26.6075 18.0368 26.3115C17.3148 26.0038 16.6519 25.6013 16.0482 25.1042L15.9772 30.4308C15.9654 31.0108 15.7878 31.502 15.4446 31.9045C15.1013 32.2951 14.6278 32.4904 14.0241 32.4904C13.74 32.4904 13.4737 32.4372 13.2251 32.3306C12.9884 32.2241 12.7753 32.0821 12.5859 31.9045C12.4084 31.7151 12.2663 31.4961 12.1598 31.2475C12.0533 30.9871 12 30.7149 12 30.4308V17.9665ZM20.6114 22.6894C21.2624 22.6894 21.8779 22.5651 22.4579 22.3166C23.038 22.0562 23.5469 21.7129 23.9849 21.2868C24.4229 20.8488 24.7721 20.3398 25.0325 19.7598C25.2929 19.1679 25.4231 18.5406 25.4231 17.8777C25.4231 17.2267 25.2929 16.5934 25.0325 15.9779C24.7721 15.3505 24.4229 14.8356 23.9849 14.4332C23.5469 14.0189 23.038 13.6993 22.4579 13.4744C21.8779 13.2376 21.2624 13.1193 20.6114 13.1193C19.9604 13.1193 19.3507 13.2435 18.7826 13.4921C18.2144 13.7407 17.7172 14.0781 17.2911 14.5042C16.865 14.9303 16.5276 15.4571 16.2791 16.0844C16.0423 16.7118 15.9239 17.351 15.9239 18.002C15.9239 18.653 16.0423 19.2626 16.2791 19.8308C16.5276 20.399 16.865 20.8961 17.2911 21.3223C17.7172 21.7484 18.2144 22.0857 18.7826 22.3343C19.3507 22.5711 19.9604 22.6894 20.6114 22.6894Z" fill="white"/>
</svg>
