<svg width="40" height="40" viewBox="0 0 40 40" fill="none" xmlns="http://www.w3.org/2000/svg">
<g id="admin">
<g clip-path="url(#clip0_2588_152)">
<rect width="40" height="40" rx="20" fill="#E6E6E6" fill-opacity="0.6"/>
<g id="character-1">
<path id="Vector" d="M23.0443 41.0657C24.7069 44.7504 31.176 56.5595 35.1687 57.067C37.79 57.4235 50.4318 53.7241 52.1381 51.051C52.8785 49.8823 50.3305 41.9707 48.9461 42.3971C47.5617 42.8235 37.9233 46.8255 36.8719 46.5924C35.8205 46.3592 27.7623 38.0281 24.7725 36.0455C19.6641 32.6084 22.1523 39.0821 23.0443 41.0657Z" fill="#F3D5CF"/>
<path id="Vector_2" d="M33.2375 40.4352L32.2904 41.4144L26.3685 47.5333C24.5464 44.1598 22.9232 40.6485 21.5089 37.021C20.1237 33.2152 20.4588 30.8466 22.3824 31.3036C23.1307 31.4628 24.1141 32.0821 25.3358 33.1971L33.2375 40.4352Z" fill="#726950"/>
<path id="Vector_3" d="M36.7041 50.9158C36.5127 51.4312 25.2515 57.3665 18.1358 61.0202C14.8769 62.6872 12.4982 63.8794 12.4401 63.8493C11.9635 63.6186 6.86077 44.2621 11.7671 33.8365C11.8596 33.6384 11.9633 33.4454 12.0774 33.2583C13.9354 30.2325 17.8562 30.0681 18.4895 30.0978C19.6855 30.1477 22.5042 32.3105 24.2941 34.5472C26.3333 37.0895 36.8776 50.4589 36.7041 50.9158Z" fill="#726950"/>
<path id="Vector_4" d="M41.1737 42.9918C41.7789 42.133 42.4788 41.3317 43.2616 40.6016C44.3299 39.6979 46.7578 37.9103 47.1353 37.4673L47.932 37.0563L49.847 54.6038L43.4083 59.5557L29.9601 62.0213L27.4373 45.6773L28.2426 45.2484C28.2426 45.2484 29.9788 44.9912 31.3533 44.6602C32.7278 44.3292 37.1609 42.5347 41.1737 42.9918Z" fill="white"/>
<path id="Vector_5" d="M41.4745 60.0279L39.0734 42.2804L26.4199 44.5968L29.1943 62.539L41.4745 60.0279Z" fill="#37474F"/>
<path id="Vector_6" d="M45.7032 62.3718L43.3487 43.817L48.586 36.8122L50.7024 56.6491L45.7032 62.3718Z" fill="#37474F"/>
<path id="Vector_7" d="M14.3673 34.2482C14.4954 28.0822 11.7672 28.5087 9.14557 33.4898C7.39643 36.9775 5.86373 40.5647 4.55685 44.2294L14.1145 45.4333C14.1145 45.4333 14.2689 38.1916 14.3673 34.2482Z" fill="#726950"/>
<path id="Vector_8" d="M22.5451 33.495C21.3193 34.3445 18.4171 33.0349 17.0122 31.6155C16.7646 30.6085 16.5648 29.5861 16.4137 28.5522C16.2294 27.5853 15.9893 26.4818 15.7094 25.5086C15.6376 25.3164 16.3843 25.434 16.3843 25.434L17.6376 25.2896L21.7837 24.8112C21.8117 26.1591 21.9921 27.4908 22.3209 28.776C22.3566 28.9114 22.4053 29.0417 22.4662 29.1649L22.4895 29.2275C22.8249 29.9149 23.7311 32.6702 22.5451 33.495Z" fill="#FADED7"/>
<path id="Vector_9" d="M13.1691 17.3521C12.8491 20.1766 14.9727 26.5537 17.0274 27.8381C20.0087 29.7027 24.2522 28.9442 25.6792 25.197C27.0665 21.568 24.2822 13.5431 22.0471 12.4646C18.7521 10.8744 13.6407 13.1849 13.1691 17.3521Z" fill="#FADED7"/>
<path id="Vector_10" d="M15.1899 22.001C16.4921 21.4942 15.0007 18.483 15.0007 18.483C15.0007 18.483 17.0572 17.7259 16.8987 14.7986C16.8987 14.7986 19.0793 17.6612 24.5206 15.6252C24.6092 15.1612 24.5908 14.691 24.4667 14.245C24.3425 13.799 24.1153 13.3872 23.7998 13.0362C24.5686 13.7616 25.2662 14.5475 25.8855 15.3858C25.8855 15.3858 26.1845 10.8601 21.8521 10.3987C20.1238 10.2151 17.7511 10.9471 14.5027 13.4976C14.5027 13.4976 13.3161 11.7116 12.9624 12.074C12.6086 12.4364 13.8662 14.0704 13.8662 14.0704C13.8662 14.0704 12.1557 14.033 11.9598 14.401C11.7639 14.7689 13.4266 14.6911 13.4266 14.6911C12.7658 15.1041 12.2768 15.7122 12.0489 16.4041C11.821 17.0961 11.8696 17.8256 12.1856 18.4594C13.1438 20.6642 14.5434 22.2525 15.1899 22.001Z" fill="#263238"/>
<path id="Vector_11" d="M13.7267 21.6686C13.7267 21.6686 12.0038 19.8891 11.2353 20.6638C10.4668 21.4384 12.0249 24.2775 13.1213 24.4208C13.2602 24.4503 13.4041 24.4473 13.5443 24.4121C13.6846 24.3769 13.8183 24.3101 13.9374 24.2159C14.0565 24.1216 14.1586 24.0017 14.2376 23.8635C14.3165 23.7252 14.3707 23.5715 14.3968 23.4114L13.7267 21.6686Z" fill="#FADED7"/>
</g>
</g>
</g>
<defs>
<clipPath id="clip0_2588_152">
<rect width="40" height="40" rx="20" fill="white"/>
</clipPath>
</defs>
</svg>
