<svg width="185" height="41" viewBox="0 0 185 41" fill="none" xmlns="http://www.w3.org/2000/svg">
<path d="M0 12.3533C0 10.6932 0.292965 9.09004 0.878894 7.54384C1.46482 5.99763 2.27861 4.67929 3.32026 3.58882C4.36192 2.48206 5.59074 1.6113 7.00674 0.976548C8.43901 0.341792 9.98521 0.0244137 11.6453 0.0244137C13.3055 0.0244137 14.868 0.341792 16.3328 0.976548C17.7976 1.6113 19.0752 2.48206 20.1657 3.58882C21.2562 4.67929 22.1188 5.99763 22.7536 7.54384C23.3883 9.09004 23.7057 10.6932 23.7057 12.3533C23.7057 14.0135 23.3883 15.5841 22.7536 17.0652C22.1188 18.53 21.2562 19.8077 20.1657 20.8981C19.0752 21.9886 17.7976 22.8512 16.3328 23.486C14.868 24.1207 13.3055 24.4381 11.6453 24.4381C10.4247 24.4381 9.30976 24.2347 8.30066 23.8278C7.30784 23.4046 6.39639 22.8512 5.56633 22.1676L5.46867 29.4918C5.4524 30.2893 5.20826 30.9647 4.73626 31.5181C4.26426 32.0552 3.61323 32.3238 2.78316 32.3238C2.39254 32.3238 2.02634 32.2505 1.68455 32.104C1.35903 31.9575 1.06607 31.7622 0.805652 31.5181C0.561515 31.2577 0.366206 30.9566 0.219723 30.6148C0.0732411 30.2567 0 29.8824 0 29.4918V12.3533ZM11.8407 18.8474C12.7358 18.8474 13.5822 18.6765 14.3797 18.3347C15.1772 17.9766 15.8771 17.5046 16.4793 16.9187C17.0815 16.3165 17.5616 15.6166 17.9197 14.8191C18.2777 14.0053 18.4568 13.1427 18.4568 12.2313C18.4568 11.3361 18.2777 10.4653 17.9197 9.619C17.5616 8.75638 17.0815 8.04839 16.4793 7.49501C15.8771 6.92536 15.1772 6.48591 14.3797 6.17667C13.5822 5.85115 12.7358 5.68839 11.8407 5.68839C10.9455 5.68839 10.1073 5.85929 9.32604 6.20108C8.5448 6.54287 7.86122 7.00673 7.27529 7.59266C6.68936 8.17859 6.2255 8.90287 5.8837 9.76548C5.55819 10.6281 5.39543 11.507 5.39543 12.4022C5.39543 13.2973 5.55819 14.1355 5.8837 14.9168C6.2255 15.698 6.68936 16.3816 7.27529 16.9675C7.86122 17.5535 8.5448 18.0173 9.32604 18.3591C10.1073 18.6846 10.9455 18.8474 11.8407 18.8474Z" fill="white"/>
<path d="M31.9331 23.0465C32.1447 23.665 32.4458 24.2347 32.8364 24.7555C33.2271 25.2763 33.6746 25.7239 34.1792 26.0983C34.7 26.4726 35.2697 26.7656 35.8882 26.9771C36.5229 27.1887 37.1821 27.2945 37.8657 27.2945C38.5981 27.2945 39.2003 27.2376 39.6723 27.1236C40.1443 26.9934 40.5919 26.7981 41.015 26.5377C41.601 26.1959 42.1299 26.025 42.6019 26.025C42.9763 26.025 43.3262 26.1064 43.6517 26.2692C43.9772 26.4156 44.2539 26.6191 44.4818 26.8795C44.7259 27.1399 44.9131 27.441 45.0433 27.7828C45.1898 28.1246 45.263 28.4745 45.263 28.8326C45.263 29.386 45.084 29.8905 44.7259 30.3462C44.3679 30.802 43.8633 31.1926 43.2123 31.5181C42.5612 31.8273 41.78 32.0633 40.8686 32.2261C39.9571 32.4051 38.9561 32.4946 37.8657 32.4946C36.2218 32.4946 34.6675 32.1854 33.2026 31.5669C31.7541 30.9322 30.4846 30.0777 29.3941 29.0035C28.3036 27.9293 27.441 26.676 26.8063 25.2438C26.1878 23.7952 25.8785 22.249 25.8785 20.6052C25.8785 18.945 26.1878 17.3907 26.8063 15.9422C27.441 14.4936 28.3036 13.2322 29.3941 12.158C30.4846 11.0838 31.7541 10.2375 33.2026 9.619C34.6675 8.98425 36.2218 8.66687 37.8657 8.66687C39.4932 8.66687 41.0232 8.97611 42.4554 9.59459C43.904 10.2131 45.1654 11.0513 46.2396 12.1092C47.33 13.1671 48.1927 14.4204 48.8274 15.8689C49.4785 17.3012 49.8202 18.8311 49.8528 20.4587C49.8528 21.2399 49.6005 21.8665 49.096 22.3385C48.6077 22.8105 47.9729 23.0465 47.1917 23.0465H31.9331ZM44.2865 18.5056C44.0912 17.822 43.7901 17.1954 43.3832 16.6257C42.9925 16.0561 42.5205 15.5678 41.9672 15.1609C41.4301 14.7377 40.8197 14.4122 40.1361 14.1844C39.4526 13.9565 38.7283 13.8426 37.9633 13.8426C37.1984 13.8426 36.4741 13.9646 35.7905 14.2088C35.1232 14.4529 34.521 14.7866 33.9839 15.2097C33.4468 15.6166 32.9829 16.1049 32.5923 16.6746C32.218 17.2442 31.9413 17.8546 31.7622 18.5056H44.2865Z" fill="white"/>
<path d="M52.7092 4.32123C52.7092 3.93061 52.7824 3.57254 52.9289 3.24702C53.0754 2.90523 53.2707 2.61227 53.5149 2.36813C53.7753 2.12399 54.0682 1.92868 54.3937 1.7822C54.7193 1.63572 55.0692 1.56248 55.4435 1.56248C55.8179 1.56248 56.1759 1.63572 56.5177 1.7822C56.8595 1.91241 57.1606 2.10772 57.4211 2.36813C57.6815 2.61227 57.8849 2.90523 58.0314 3.24702C58.1942 3.57254 58.2755 3.93061 58.2755 4.32123V8.25183H66.8447C67.2191 8.25183 67.569 8.32508 67.8945 8.47156C68.2363 8.61804 68.5293 8.81335 68.7734 9.05749C69.0176 9.30162 69.2129 9.59459 69.3594 9.93638C69.5058 10.2619 69.5791 10.6118 69.5791 10.9862C69.5791 11.3442 69.5058 11.686 69.3594 12.0115C69.2129 12.3208 69.0176 12.5975 68.7734 12.8416C68.5293 13.0695 68.2363 13.2566 67.8945 13.4031C67.569 13.5333 67.2191 13.5984 66.8447 13.5984H58.2755V20.7272C58.2755 21.6224 58.4383 22.4606 58.7638 23.2419C59.0893 24.0068 59.5369 24.6823 60.1066 25.2682C60.6762 25.8378 61.3435 26.2854 62.1085 26.6109C62.8897 26.9365 63.7361 27.0992 64.6475 27.0992C65.445 27.0992 66.1856 26.9853 66.8692 26.7574C67.5527 26.5296 68.1875 26.1634 68.7734 25.6588C69.0989 25.3821 69.4163 25.1624 69.7256 24.9996C70.0348 24.8206 70.401 24.7311 70.8242 24.7311C71.1334 24.7311 71.4345 24.7962 71.7275 24.9264C72.0204 25.0566 72.2809 25.2438 72.5087 25.4879C72.7366 25.7158 72.9156 25.9925 73.0458 26.318C73.1923 26.6272 73.2655 26.9609 73.2655 27.3189C73.2655 27.7421 73.1842 28.149 73.0214 28.5396C72.8587 28.9302 72.6145 29.2802 72.289 29.5894C71.2636 30.566 70.0999 31.2984 68.7978 31.7867C67.5121 32.2749 66.1286 32.5191 64.6475 32.5191C62.9874 32.5191 61.433 32.218 59.9845 31.6158C58.5359 30.9973 57.2746 30.1591 56.2004 29.1011C55.1262 28.0269 54.2717 26.7737 53.6369 25.3414C53.0184 23.8929 52.7092 22.3385 52.7092 20.6784V4.32123Z" fill="white"/>
<path d="M75.9999 20.6052C75.9999 18.9613 76.3091 17.4151 76.9276 15.9666C77.5624 14.518 78.425 13.2566 79.5155 12.1824C80.6059 11.092 81.8673 10.2375 83.2996 9.619C84.7481 8.98425 86.2943 8.66687 87.9382 8.66687C89.5658 8.66687 91.1038 8.98425 92.5524 9.619C94.0009 10.2375 95.2623 11.092 96.3365 12.1824C97.4107 13.2566 98.257 14.518 98.8755 15.9666C99.5103 17.4151 99.8277 18.9613 99.8277 20.6052C99.8277 22.249 99.5103 23.7952 98.8755 25.2438C98.257 26.676 97.4107 27.9293 96.3365 29.0035C95.2623 30.0777 94.0009 30.9322 92.5524 31.5669C91.1038 32.1854 89.5658 32.4946 87.9382 32.4946C86.7175 32.4946 85.5619 32.3238 84.4714 31.982C83.381 31.6402 82.3637 31.16 81.4197 30.5416V37.8413C81.4197 38.6388 81.1837 39.3061 80.7117 39.8432C80.2397 40.3966 79.5887 40.6732 78.7586 40.6732C78.3843 40.6732 78.0262 40.6 77.6844 40.4535C77.3589 40.307 77.0659 40.1036 76.8055 39.8432C76.5614 39.599 76.3661 39.2979 76.2196 38.9399C76.0731 38.5981 75.9999 38.2319 75.9999 37.8413V20.6052ZM81.4441 20.6052C81.4441 21.5003 81.615 22.3385 81.9568 23.1198C82.2986 23.901 82.7625 24.5846 83.3484 25.1705C83.9343 25.7565 84.6179 26.2203 85.3992 26.5621C86.1967 26.9039 87.043 27.0748 87.9382 27.0748C88.8334 27.0748 89.6716 26.9039 90.4528 26.5621C91.2503 26.2203 91.942 25.7565 92.528 25.1705C93.1139 24.5846 93.5696 23.901 93.8951 23.1198C94.2369 22.3385 94.4078 21.5003 94.4078 20.6052C94.4078 19.71 94.2369 18.8718 93.8951 18.0906C93.5696 17.3093 93.1139 16.6257 92.528 16.0398C91.942 15.4539 91.2503 14.9982 90.4528 14.6726C89.6716 14.3308 88.8334 14.16 87.9382 14.16C87.043 14.16 86.1967 14.3308 85.3992 14.6726C84.6179 14.9982 83.9343 15.4539 83.3484 16.0398C82.7625 16.6257 82.2986 17.3093 81.9568 18.0906C81.615 18.8718 81.4441 19.71 81.4441 20.6052Z" fill="white"/>
<path d="M113.914 32.4946C112.287 32.4946 110.749 32.1854 109.3 31.5669C107.868 30.9322 106.615 30.0777 105.54 29.0035C104.466 27.9293 103.612 26.676 102.977 25.2438C102.359 23.7952 102.049 22.249 102.049 20.6052C102.049 18.9613 102.359 17.4151 102.977 15.9666C103.612 14.518 104.466 13.2566 105.54 12.1824C106.615 11.092 107.868 10.2375 109.3 9.619C110.749 8.98425 112.287 8.66687 113.914 8.66687C115.558 8.66687 117.096 8.98425 118.529 9.619C119.977 10.2375 121.238 11.092 122.313 12.1824C123.387 13.2566 124.233 14.518 124.852 15.9666C125.47 17.4151 125.779 18.9613 125.779 20.6052V29.6627C125.779 30.0533 125.706 30.4195 125.56 30.7613C125.413 31.0868 125.218 31.3798 124.974 31.6402C124.73 31.8843 124.437 32.0796 124.095 32.2261C123.769 32.3726 123.411 32.4458 123.021 32.4458C122.37 32.4458 121.816 32.2668 121.361 31.9087C120.921 31.5507 120.62 31.0868 120.457 30.5171C119.513 31.1356 118.488 31.6239 117.381 31.982C116.291 32.3238 115.135 32.4946 113.914 32.4946ZM113.914 27.0748C114.81 27.0748 115.648 26.9039 116.429 26.5621C117.227 26.2203 117.91 25.7565 118.48 25.1705C119.066 24.5846 119.521 23.901 119.847 23.1198C120.189 22.3385 120.36 21.5003 120.36 20.6052C120.36 19.71 120.189 18.8718 119.847 18.0906C119.521 17.3093 119.066 16.6257 118.48 16.0398C117.91 15.4539 117.227 14.9982 116.429 14.6726C115.648 14.3308 114.81 14.16 113.914 14.16C113.035 14.16 112.205 14.3308 111.424 14.6726C110.643 14.9982 109.959 15.4539 109.373 16.0398C108.787 16.6257 108.324 17.3093 107.982 18.0906C107.656 18.8718 107.494 19.71 107.494 20.6052C107.494 21.5003 107.656 22.3385 107.982 23.1198C108.324 23.901 108.779 24.5846 109.349 25.1705C109.935 25.7565 110.619 26.2203 111.4 26.5621C112.181 26.9039 113.019 27.0748 113.914 27.0748Z" fill="white"/>
<path d="M154.856 15.7468C155.247 15.7468 155.605 15.8201 155.93 15.9666C156.272 16.0968 156.565 16.2839 156.809 16.5281C157.07 16.7559 157.273 17.0326 157.42 17.3581C157.566 17.6837 157.639 18.0417 157.639 18.4324V25.9029C157.639 26.3261 157.55 26.7005 157.371 27.026C157.208 27.3515 156.996 27.6526 156.736 27.9293C154.864 29.5894 152.936 30.7694 150.95 31.4693C148.981 32.1691 146.938 32.5191 144.822 32.5191C143.39 32.5191 141.998 32.3238 140.647 31.9331C139.313 31.5425 138.051 30.9973 136.863 30.2974C135.691 29.5976 134.609 28.7594 133.616 27.7828C132.64 26.79 131.801 25.6914 131.102 24.487C130.402 23.2825 129.857 21.9886 129.466 20.6052C129.075 19.2217 128.88 17.7895 128.88 16.3084C128.88 14.0948 129.295 12.0034 130.125 10.034C130.955 8.04839 132.094 6.31501 133.543 4.83391C134.992 3.35282 136.692 2.18096 138.645 1.31834C140.599 0.439447 142.706 0 144.969 0C149.461 0 153.343 1.6113 156.614 4.83391C156.891 5.1106 157.094 5.41171 157.224 5.73722C157.355 6.06274 157.42 6.38825 157.42 6.71377C157.42 7.05556 157.346 7.38922 157.2 7.71473C157.053 8.04025 156.85 8.33321 156.59 8.59363C156.345 8.83776 156.052 9.03307 155.711 9.17955C155.385 9.32604 155.035 9.39928 154.661 9.39928C154.319 9.39928 153.985 9.34231 153.66 9.22838C153.334 9.09818 153.05 8.90287 152.805 8.64245C151.715 7.56825 150.502 6.77074 149.168 6.24991C147.849 5.72908 146.474 5.46867 145.042 5.46867C143.593 5.46867 142.218 5.74536 140.916 6.29874C139.614 6.85211 138.475 7.61708 137.498 8.59363C136.521 9.5539 135.74 10.6932 135.154 12.0115C134.585 13.3299 134.3 14.754 134.3 16.2839C134.3 17.7488 134.577 19.1403 135.13 20.4587C135.683 21.7608 136.44 22.9082 137.4 23.901C138.377 24.8776 139.524 25.6588 140.843 26.2447C142.161 26.8144 143.585 27.0992 145.115 27.0992C146.401 27.0992 147.63 26.9202 148.802 26.5621C149.973 26.2041 151.096 25.5856 152.171 24.7067V21.1423H148.387C148.012 21.1423 147.662 21.069 147.337 20.9226C147.011 20.7761 146.726 20.5808 146.482 20.3366C146.254 20.0925 146.067 19.8077 145.921 19.4821C145.791 19.1566 145.725 18.8067 145.725 18.4324C145.725 18.0743 145.791 17.7325 145.921 17.407C146.067 17.0652 146.254 16.7722 146.482 16.5281C146.726 16.2677 147.011 16.0642 147.337 15.9177C147.662 15.7713 148.012 15.698 148.387 15.698L154.856 15.7468Z" fill="#BAB3FF"/>
<path d="M166.086 20.6052C166.086 21.5003 166.257 22.3385 166.599 23.1198C166.941 23.901 167.405 24.5846 167.991 25.1705C168.577 25.7565 169.26 26.2203 170.042 26.5621C170.823 26.9039 171.661 27.0748 172.556 27.0748C173.468 27.0748 174.314 26.9039 175.095 26.5621C175.893 26.2203 176.584 25.7565 177.17 25.1705C177.756 24.5846 178.212 23.901 178.537 23.1198C178.879 22.3385 179.05 21.5003 179.05 20.6052C179.05 19.71 178.879 18.8718 178.537 18.0906C178.196 17.3093 177.732 16.6257 177.146 16.0398C176.56 15.4539 175.868 14.9982 175.071 14.6726C174.289 14.3308 173.451 14.16 172.556 14.16C171.677 14.16 170.839 14.3308 170.042 14.6726C169.26 14.9982 168.577 15.4539 167.991 16.0398C167.405 16.6257 166.941 17.3093 166.599 18.0906C166.257 18.8718 166.086 19.71 166.086 20.6052ZM160.642 20.6052C160.642 18.9613 160.951 17.4151 161.57 15.9666C162.205 14.518 163.059 13.2566 164.133 12.1824C165.224 11.092 166.485 10.2375 167.918 9.619C169.366 8.98425 170.912 8.66687 172.556 8.66687C174.2 8.66687 175.746 8.98425 177.195 9.619C178.643 10.2375 179.905 11.092 180.979 12.1824C182.053 13.2566 182.899 14.518 183.518 15.9666C184.153 17.4151 184.47 18.9613 184.47 20.6052C184.47 22.249 184.153 23.7952 183.518 25.2438C182.899 26.676 182.053 27.9293 180.979 29.0035C179.905 30.0777 178.643 30.9322 177.195 31.5669C175.746 32.1854 174.2 32.4946 172.556 32.4946C170.912 32.4946 169.366 32.1854 167.918 31.5669C166.485 30.9322 165.224 30.0777 164.133 29.0035C163.059 27.9293 162.205 26.676 161.57 25.2438C160.951 23.7952 160.642 22.249 160.642 20.6052Z" fill="#BAB3FF"/>
</svg>
