<svg width="25" height="25" viewBox="0 0 25 25" fill="none" xmlns="http://www.w3.org/2000/svg">
<g id="user-group">
<path id="Icon" d="M18.7401 19.6719H20.235C21.3396 19.6719 22.3019 18.7478 21.951 17.7005C21.4162 16.1044 20.1005 15.1391 17.7877 14.8048M14.7351 11.5364C15.0261 11.6283 15.3594 11.6719 15.735 11.6719C17.4017 11.6719 18.235 10.8147 18.235 8.67188C18.235 6.52902 17.4017 5.67188 15.735 5.67188C15.3594 5.67188 15.0261 5.71541 14.7351 5.80739M9.73499 14.6719C13.3484 14.6719 15.2745 15.6814 15.951 17.7005C16.3019 18.7478 15.3396 19.6719 14.235 19.6719H5.23499C4.13042 19.6719 3.16809 18.7478 3.51899 17.7005C4.19545 15.6814 6.12153 14.6719 9.73499 14.6719ZM9.73499 11.6719C11.4017 11.6719 12.235 10.8147 12.235 8.67188C12.235 6.52902 11.4017 5.67188 9.73499 5.67188C8.06832 5.67188 7.23499 6.52902 7.23499 8.67188C7.23499 10.8147 8.06832 11.6719 9.73499 11.6719Z" stroke="white" stroke-width="2" stroke-linecap="round" stroke-linejoin="round"/>
</g>
</svg>
